<?xml version="1.0" encoding="UTF-8"?><svg xmlns="http://www.w3.org/2000/svg" xmlns:xlink="http://www.w3.org/1999/xlink" width="1440px" height="628px" viewBox="0 0 1440 628" version="1.1">
    <title>hero-bg-short</title>
    <defs>
        <rect id="path-1" x="0" y="0" width="1440" height="628"/>
        <rect id="path-3" x="0.258795031" y="0" width="1440" height="621"/>
        <linearGradient x1="100.855697%" y1="50%" x2="46.0081415%" y2="50%" id="linearGradient-5">
            <stop stop-color="#a82a22" offset="0%"/>
            <stop stop-color="#b12623" offset="100%"/>
        </linearGradient>
        <path d="M0.258795031,-119 L1440.2588,-119 C1570.67601,397.417212 1519.67601,632.292485 1287.2588,585.625818 C938.632977,515.625818 332.934118,735.36799 0.258795031,533 C-224.086265,418.023157 -224.086265,200.689823 0.258795031,-119 Z" id="path-6"/>
        <linearGradient x1="50%" y1="0%" x2="50%" y2="53.896195%" id="linearGradient-8">
            <stop stop-color="#a82a22" offset="0%"/>
            <stop stop-color="#b12623" offset="100%"/>
        </linearGradient>
    </defs>
    <g id="Dektop" stroke="none" stroke-width="1" fill="none" fill-rule="evenodd">
        <g id="hero-bg-short">
            <mask id="mask-2" fill="white">
                <use xlink:href="#path-1"/>
            </mask>
            <g id="Rectangle"/>
            <path d="M-1.13686838e-13,-59 L1440,-59 C1444.61951,441.905028 1330.72066,669.024209 1098.30345,622.357542 C749.677634,552.357542 332.675323,713.15555 -2.55795385e-13,510.78756 C-224.34506,395.810716 -224.34506,205.88153 -1.13686838e-13,-59 Z" id="Mask" fill-opacity="0.431080638" fill="#ef8a1d" mask="url(#mask-2)"/>
            <g id="Group-3" mask="url(#mask-2)">
                <g transform="translate(-0.258795, 0.000000)">
                    <mask id="mask-4" fill="white">
                        <use xlink:href="#path-3"/>
                    </mask>
                    <g id="Rectangle" stroke="none" fill="none"/>
                    <mask id="mask-7" fill="white">
                        <use xlink:href="#path-6"/>
                    </mask>
                    <use id="Mask" stroke="none" fill="url(#linearGradient-5)" fill-rule="evenodd" xlink:href="#path-6"/>
                    <path d="M139.677656,310.594382 C221.552718,319.222038 281.423822,332.584981 319.290967,350.683213 C357.158113,368.781444 405.397436,407.088821 464.008938,465.605344 C460.527923,539.265711 449.689901,595.605578 431.494872,634.624943 C413.299843,673.644308 373.324408,726.274252 311.568567,792.514774 C229.658481,783.105627 170.306536,769.506146 133.51273,751.71633 C96.7189243,733.926515 48.189172,695.365164 -12.076527,636.032278 C-10.3741057,623.41895 -8.61898634,611.319984 -6.81116892,599.73538 L-6.03316362,594.802041 C4.90408042,526.17618 17.7384542,476.067344 32.4699577,444.475533 C50.0074618,406.866234 85.7433613,362.239184 139.677656,310.594382 Z" id="Path-2" stroke="none" fill="url(#linearGradient-8)" fill-rule="evenodd" opacity="0.240048363" mask="url(#mask-7)"/>
                </g>
            </g>
            <path d="M545.480551,273.817447 L545.978563,273.820194 C558.511888,273.939418 576.459388,277.937133 599.749471,286.392649 C601.863262,287.160065 603.919738,287.927416 605.915581,288.697079 C606.785717,290.672296 607.650462,292.707051 608.509308,294.80172 C617.058105,315.651698 621.023275,332.684486 621.023275,345.811149 C621.023275,358.511055 617.161041,377.610411 608.896989,403.054648 C608.101049,405.505271 607.306654,407.884277 606.512683,410.190678 C604.211245,411.011062 601.832811,411.831131 599.377025,412.650304 C575.970627,420.457935 558.134985,423.9819 545.927266,423.810631 C533.767204,423.640031 515.775311,419.623554 492.020951,411.186896 C489.602599,410.327988 487.25949,409.471203 484.992873,408.616193 C484.238385,406.320999 483.480889,403.954294 482.720782,401.515855 C474.747927,375.938781 471.023275,357.019313 471.023275,344.806983 C471.023275,332.214348 474.832727,315.294838 483.060311,294.129187 C483.921034,291.914959 484.786029,289.767657 485.657625,287.685981 C487.762521,286.916212 489.930373,286.147333 492.161451,285.379782 C515.473943,277.359652 533.433487,273.700859 545.978563,273.820194 Z" id="Path-2" stroke="#ef8a1d" stroke-width="30" opacity="0.08" stroke-linecap="round" mask="url(#mask-2)" transform="translate(546.023275, 348.817128) rotate(70.000000) translate(-546.023275, -348.817128) "/>
            <g id="shutterstock_670149856" opacity="0.35" mask="url(#mask-2)" fill="#FFFFFF">
                <g transform="translate(743.000000, 132.000000)">
                    <path d="M198.998824,197 C197.895944,197 197,197.895944 197,198.998824 C197,200.104056 197.895944,201 198.998824,201 C200.104056,201 201,200.104056 201,198.998824 C201,197.895944 200.104056,197 198.998824,197" id="Fill-17"/>
                    <path d="M176,197 C174.894118,197 174,197.895944 174,198.998824 C174,200.104056 174.894118,201 176,201 C177.105882,201 178,200.104056 178,198.998824 C178,197.895944 177.105882,197 176,197" id="Fill-18"/>
                    <path d="M155.001176,197 C153.895944,197 153,197.895944 153,198.998824 C153,200.104056 153.895944,201 155.001176,201 C156.104056,201 157,200.104056 157,198.998824 C157,197.895944 156.104056,197 155.001176,197" id="Fill-19"/>
                    <path d="M133.001176,197 C131.895944,197 131,197.895944 131,198.998824 C131,200.104056 131.895944,201 133.001176,201 C134.104056,201 135,200.104056 135,198.998824 C135,197.895944 134.104056,197 133.001176,197" id="Fill-20"/>
                    <path d="M110.998824,197 C109.895944,197 109,197.895944 109,198.998824 C109,200.104056 109.895944,201 110.998824,201 C112.104056,201 113,200.104056 113,198.998824 C113,197.895944 112.104056,197 110.998824,197" id="Fill-21"/>
                    <path d="M88.9988242,197 C87.893592,197 87,197.895944 87,198.998824 C87,200.104056 87.893592,201 88.9988242,201 C90.1040564,201 91,200.104056 91,198.998824 C91,197.895944 90.1040564,197 88.9988242,197" id="Fill-22"/>
                    <path d="M68.0011758,197 C66.8959436,197 66,197.895944 66,198.998824 C66,200.104056 66.8959436,201 68.0011758,201 C69.106408,201 70,200.104056 70,198.998824 C70,197.895944 69.106408,197 68.0011758,197" id="Fill-23"/>
                    <path d="M45.0011758,197 C43.8959436,197 43,197.895944 43,198.998824 C43,200.104056 43.8959436,201 45.0011758,201 C46.1040564,201 47,200.104056 47,198.998824 C47,197.895944 46.1040564,197 45.0011758,197" id="Fill-24"/>
                    <path d="M23.9988242,197 C22.8959436,197 22,197.895944 22,198.998824 C22,200.104056 22.8959436,201 23.9988242,201 C25.1040564,201 26,200.104056 26,198.998824 C26,197.895944 25.1040564,197 23.9988242,197" id="Fill-25"/>
                    <path d="M1.99882422,197 C0.895943563,197 0,197.895944 0,198.998824 C0,200.104056 0.895943563,201 1.99882422,201 C3.10405644,201 4,200.104056 4,198.998824 C4,197.895944 3.10405644,197 1.99882422,197" id="Fill-26"/>
                    <path d="M198.998824,175 C197.895944,175 197,175.894118 197,177 C197,178.105882 197.895944,179 198.998824,179 C200.104056,179 201,178.105882 201,177 C201,175.894118 200.104056,175 198.998824,175" id="Fill-29"/>
                    <path d="M176,175 C174.894118,175 174,175.894118 174,177 C174,178.105882 174.894118,179 176,179 C177.105882,179 178,178.105882 178,177 C178,175.894118 177.105882,175 176,175" id="Fill-30"/>
                    <path d="M155.001176,175 C153.895944,175 153,175.894118 153,177 C153,178.105882 153.895944,179 155.001176,179 C156.104056,179 157,178.105882 157,177 C157,175.894118 156.104056,175 155.001176,175" id="Fill-31"/>
                    <path d="M133.001176,175 C131.895944,175 131,175.894118 131,177 C131,178.105882 131.895944,179 133.001176,179 C134.104056,179 135,178.105882 135,177 C135,175.894118 134.104056,175 133.001176,175" id="Fill-32"/>
                    <path d="M110.998824,175 C109.895944,175 109,175.894118 109,177 C109,178.105882 109.895944,179 110.998824,179 C112.104056,179 113,178.105882 113,177 C113,175.894118 112.104056,175 110.998824,175" id="Fill-33"/>
                    <path d="M88.9988242,175 C87.893592,175 87,175.894118 87,177 C87,178.105882 87.893592,179 88.9988242,179 C90.1040564,179 91,178.105882 91,177 C91,175.894118 90.1040564,175 88.9988242,175" id="Fill-34"/>
                    <path d="M68.0011758,175 C66.8959436,175 66,175.894118 66,177 C66,178.105882 66.8959436,179 68.0011758,179 C69.106408,179 70,178.105882 70,177 C70,175.894118 69.106408,175 68.0011758,175" id="Fill-35"/>
                    <path d="M45.0011758,175 C43.8959436,175 43,175.894118 43,177 C43,178.105882 43.8959436,179 45.0011758,179 C46.1040564,179 47,178.105882 47,177 C47,175.894118 46.1040564,175 45.0011758,175" id="Fill-36"/>
                    <path d="M23.9988242,175 C22.8959436,175 22,175.894118 22,177 C22,178.105882 22.8959436,179 23.9988242,179 C25.1040564,179 26,178.105882 26,177 C26,175.894118 25.1040564,175 23.9988242,175" id="Fill-37"/>
                    <path d="M1.99882422,175 C0.895943563,175 0,175.894118 0,177 C0,178.105882 0.895943563,179 1.99882422,179 C3.10405644,179 4,178.105882 4,177 C4,175.894118 3.10405644,175 1.99882422,175" id="Fill-38"/>
                    <path d="M198.998824,154 C197.895944,154 197,154.895944 197,156.001176 C197,157.104056 197.895944,158 198.998824,158 C200.104056,158 201,157.104056 201,156.001176 C201,154.895944 200.104056,154 198.998824,154" id="Fill-41"/>
                    <path d="M176,154 C174.894118,154 174,154.895944 174,156.001176 C174,157.104056 174.894118,158 176,158 C177.105882,158 178,157.104056 178,156.001176 C178,154.895944 177.105882,154 176,154" id="Fill-42"/>
                    <path d="M155.001176,154 C153.895944,154 153,154.895944 153,156.001176 C153,157.104056 153.895944,158 155.001176,158 C156.104056,158 157,157.104056 157,156.001176 C157,154.895944 156.104056,154 155.001176,154" id="Fill-43"/>
                    <path d="M133.001176,154 C131.895944,154 131,154.895944 131,156.001176 C131,157.104056 131.895944,158 133.001176,158 C134.104056,158 135,157.104056 135,156.001176 C135,154.895944 134.104056,154 133.001176,154" id="Fill-44"/>
                    <path d="M110.998824,154 C109.895944,154 109,154.895944 109,156.001176 C109,157.104056 109.895944,158 110.998824,158 C112.104056,158 113,157.104056 113,156.001176 C113,154.895944 112.104056,154 110.998824,154" id="Fill-45"/>
                    <path d="M88.9988242,154 C87.893592,154 87,154.895944 87,156.001176 C87,157.104056 87.893592,158 88.9988242,158 C90.1040564,158 91,157.104056 91,156.001176 C91,154.895944 90.1040564,154 88.9988242,154" id="Fill-46"/>
                    <path d="M68.0011758,154 C66.8959436,154 66,154.895944 66,156.001176 C66,157.104056 66.8959436,158 68.0011758,158 C69.106408,158 70,157.104056 70,156.001176 C70,154.895944 69.106408,154 68.0011758,154" id="Fill-47"/>
                    <path d="M45.0011758,154 C43.8959436,154 43,154.895944 43,156.001176 C43,157.104056 43.8959436,158 45.0011758,158 C46.1040564,158 47,157.104056 47,156.001176 C47,154.895944 46.1040564,154 45.0011758,154" id="Fill-48"/>
                    <path d="M23.9988242,154 C22.8959436,154 22,154.895944 22,156.001176 C22,157.104056 22.8959436,158 23.9988242,158 C25.1040564,158 26,157.104056 26,156.001176 C26,154.895944 25.1040564,154 23.9988242,154" id="Fill-49"/>
                    <path d="M1.99882422,154 C0.895943563,154 0,154.895944 0,156.001176 C0,157.104056 0.895943563,158 1.99882422,158 C3.10405644,158 4,157.104056 4,156.001176 C4,154.895944 3.10405644,154 1.99882422,154" id="Fill-50"/>
                    <path d="M198.998824,131 C197.895944,131 197,131.895944 197,133.001176 C197,134.104056 197.895944,135 198.998824,135 C200.104056,135 201,134.104056 201,133.001176 C201,131.895944 200.104056,131 198.998824,131" id="Fill-53"/>
                    <path d="M176,131 C174.894118,131 174,131.895944 174,133.001176 C174,134.104056 174.894118,135 176,135 C177.105882,135 178,134.104056 178,133.001176 C178,131.895944 177.105882,131 176,131" id="Fill-54"/>
                    <path d="M155.001176,131 C153.895944,131 153,131.895944 153,133.001176 C153,134.104056 153.895944,135 155.001176,135 C156.104056,135 157,134.104056 157,133.001176 C157,131.895944 156.104056,131 155.001176,131" id="Fill-55"/>
                    <path d="M133.001176,131 C131.895944,131 131,131.895944 131,133.001176 C131,134.104056 131.895944,135 133.001176,135 C134.104056,135 135,134.104056 135,133.001176 C135,131.895944 134.104056,131 133.001176,131" id="Fill-56"/>
                    <path d="M110.998824,131 C109.895944,131 109,131.895944 109,133.001176 C109,134.104056 109.895944,135 110.998824,135 C112.104056,135 113,134.104056 113,133.001176 C113,131.895944 112.104056,131 110.998824,131" id="Fill-57"/>
                    <path d="M88.9988242,131 C87.893592,131 87,131.895944 87,133.001176 C87,134.104056 87.893592,135 88.9988242,135 C90.1040564,135 91,134.104056 91,133.001176 C91,131.895944 90.1040564,131 88.9988242,131" id="Fill-58"/>
                    <path d="M68.0011758,131 C66.8959436,131 66,131.895944 66,133.001176 C66,134.104056 66.8959436,135 68.0011758,135 C69.106408,135 70,134.104056 70,133.001176 C70,131.895944 69.106408,131 68.0011758,131" id="Fill-59"/>
                    <path d="M45.0011758,131 C43.8959436,131 43,131.895944 43,133.001176 C43,134.104056 43.8959436,135 45.0011758,135 C46.1040564,135 47,134.104056 47,133.001176 C47,131.895944 46.1040564,131 45.0011758,131" id="Fill-60"/>
                    <path d="M23.9988242,131 C22.8959436,131 22,131.895944 22,133.001176 C22,134.104056 22.8959436,135 23.9988242,135 C25.1040564,135 26,134.104056 26,133.001176 C26,131.895944 25.1040564,131 23.9988242,131" id="Fill-61"/>
                    <path d="M1.99882422,131 C0.895943563,131 0,131.895944 0,133.001176 C0,134.104056 0.895943563,135 1.99882422,135 C3.10405644,135 4,134.104056 4,133.001176 C4,131.895944 3.10405644,131 1.99882422,131" id="Fill-62"/>
                    <path d="M198.998824,110 C197.895944,110 197,110.895944 197,111.998824 C197,113.104056 197.895944,114 198.998824,114 C200.104056,114 201,113.104056 201,111.998824 C201,110.895944 200.104056,110 198.998824,110" id="Fill-65"/>
                    <path d="M176,110 C174.894118,110 174,110.895944 174,111.998824 C174,113.104056 174.894118,114 176,114 C177.105882,114 178,113.104056 178,111.998824 C178,110.895944 177.105882,110 176,110" id="Fill-66"/>
                    <path d="M155.001176,110 C153.895944,110 153,110.895944 153,111.998824 C153,113.104056 153.895944,114 155.001176,114 C156.104056,114 157,113.104056 157,111.998824 C157,110.895944 156.104056,110 155.001176,110" id="Fill-67"/>
                    <path d="M133.001176,110 C131.895944,110 131,110.895944 131,111.998824 C131,113.104056 131.895944,114 133.001176,114 C134.104056,114 135,113.104056 135,111.998824 C135,110.895944 134.104056,110 133.001176,110" id="Fill-68"/>
                    <path d="M110.998824,110 C109.895944,110 109,110.895944 109,111.998824 C109,113.104056 109.895944,114 110.998824,114 C112.104056,114 113,113.104056 113,111.998824 C113,110.895944 112.104056,110 110.998824,110" id="Fill-69"/>
                    <path d="M88.9988242,110 C87.893592,110 87,110.895944 87,111.998824 C87,113.104056 87.893592,114 88.9988242,114 C90.1040564,114 91,113.104056 91,111.998824 C91,110.895944 90.1040564,110 88.9988242,110" id="Fill-70"/>
                    <path d="M68.0011758,110 C66.8959436,110 66,110.895944 66,111.998824 C66,113.104056 66.8959436,114 68.0011758,114 C69.106408,114 70,113.104056 70,111.998824 C70,110.895944 69.106408,110 68.0011758,110" id="Fill-71"/>
                    <path d="M45.0011758,110 C43.8959436,110 43,110.895944 43,111.998824 C43,113.104056 43.8959436,114 45.0011758,114 C46.1040564,114 47,113.104056 47,111.998824 C47,110.895944 46.1040564,110 45.0011758,110" id="Fill-72"/>
                    <path d="M23.9988242,110 C22.8959436,110 22,110.895944 22,111.998824 C22,113.104056 22.8959436,114 23.9988242,114 C25.1040564,114 26,113.104056 26,111.998824 C26,110.895944 25.1040564,110 23.9988242,110" id="Fill-73"/>
                    <path d="M1.99882422,110 C0.895943563,110 0,110.895944 0,111.998824 C0,113.104056 0.895943563,114 1.99882422,114 C3.10405644,114 4,113.104056 4,111.998824 C4,110.895944 3.10405644,110 1.99882422,110" id="Fill-74"/>
                    <path d="M198.998824,89 C197.895944,89 197,89.8941176 197,91 C197,92.1058824 197.895944,93 198.998824,93 C200.104056,93 201,92.1058824 201,91 C201,89.8941176 200.104056,89 198.998824,89" id="Fill-77"/>
                    <path d="M176,89 C174.894118,89 174,89.8941176 174,91 C174,92.1058824 174.894118,93 176,93 C177.105882,93 178,92.1058824 178,91 C178,89.8941176 177.105882,89 176,89" id="Fill-78"/>
                    <path d="M155.001176,89 C153.895944,89 153,89.8941176 153,91 C153,92.1058824 153.895944,93 155.001176,93 C156.104056,93 157,92.1058824 157,91 C157,89.8941176 156.104056,89 155.001176,89" id="Fill-79"/>
                    <path d="M133.001176,89 C131.895944,89 131,89.8941176 131,91 C131,92.1058824 131.895944,93 133.001176,93 C134.104056,93 135,92.1058824 135,91 C135,89.8941176 134.104056,89 133.001176,89" id="Fill-80"/>
                    <path d="M110.998824,89 C109.895944,89 109,89.8941176 109,91 C109,92.1058824 109.895944,93 110.998824,93 C112.104056,93 113,92.1058824 113,91 C113,89.8941176 112.104056,89 110.998824,89" id="Fill-81"/>
                    <path d="M88.9988242,89 C87.893592,89 87,89.8941176 87,91 C87,92.1058824 87.893592,93 88.9988242,93 C90.1040564,93 91,92.1058824 91,91 C91,89.8941176 90.1040564,89 88.9988242,89" id="Fill-82"/>
                    <path d="M68.0011758,89 C66.8959436,89 66,89.8941176 66,91 C66,92.1058824 66.8959436,93 68.0011758,93 C69.106408,93 70,92.1058824 70,91 C70,89.8941176 69.106408,89 68.0011758,89" id="Fill-83"/>
                    <path d="M45.0011758,89 C43.8959436,89 43,89.8941176 43,91 C43,92.1058824 43.8959436,93 45.0011758,93 C46.1040564,93 47,92.1058824 47,91 C47,89.8941176 46.1040564,89 45.0011758,89" id="Fill-84"/>
                    <path d="M23.9988242,89 C22.8959436,89 22,89.8941176 22,91 C22,92.1058824 22.8959436,93 23.9988242,93 C25.1040564,93 26,92.1058824 26,91 C26,89.8941176 25.1040564,89 23.9988242,89" id="Fill-85"/>
                    <path d="M1.99882422,89 C0.895943563,89 0,89.8941176 0,91 C0,92.1058824 0.895943563,93 1.99882422,93 C3.10405644,93 4,92.1058824 4,91 C4,89.8941176 3.10405644,89 1.99882422,89" id="Fill-86"/>
                    <path d="M198.998824,66 C197.895944,66 197,66.8959436 197,68.0011758 C197,69.1040564 197.895944,70 198.998824,70 C200.104056,70 201,69.1040564 201,68.0011758 C201,66.8959436 200.104056,66 198.998824,66" id="Fill-89"/>
                    <path d="M176,66 C174.894118,66 174,66.8959436 174,68.0011758 C174,69.1040564 174.894118,70 176,70 C177.105882,70 178,69.1040564 178,68.0011758 C178,66.8959436 177.105882,66 176,66" id="Fill-90"/>
                    <path d="M155.001176,66 C153.895944,66 153,66.8959436 153,68.0011758 C153,69.1040564 153.895944,70 155.001176,70 C156.104056,70 157,69.1040564 157,68.0011758 C157,66.8959436 156.104056,66 155.001176,66" id="Fill-91"/>
                    <path d="M133.001176,66 C131.895944,66 131,66.8959436 131,68.0011758 C131,69.1040564 131.895944,70 133.001176,70 C134.104056,70 135,69.1040564 135,68.0011758 C135,66.8959436 134.104056,66 133.001176,66" id="Fill-92"/>
                    <path d="M110.998824,66 C109.895944,66 109,66.8959436 109,68.0011758 C109,69.1040564 109.895944,70 110.998824,70 C112.104056,70 113,69.1040564 113,68.0011758 C113,66.8959436 112.104056,66 110.998824,66" id="Fill-93"/>
                    <path d="M88.9988242,66 C87.893592,66 87,66.8959436 87,68.0011758 C87,69.1040564 87.893592,70 88.9988242,70 C90.1040564,70 91,69.1040564 91,68.0011758 C91,66.8959436 90.1040564,66 88.9988242,66" id="Fill-94"/>
                    <path d="M68.0011758,66 C66.8959436,66 66,66.8959436 66,68.0011758 C66,69.1040564 66.8959436,70 68.0011758,70 C69.106408,70 70,69.1040564 70,68.0011758 C70,66.8959436 69.106408,66 68.0011758,66" id="Fill-95"/>
                    <path d="M45.0011758,66 C43.8959436,66 43,66.8959436 43,68.0011758 C43,69.1040564 43.8959436,70 45.0011758,70 C46.1040564,70 47,69.1040564 47,68.0011758 C47,66.8959436 46.1040564,66 45.0011758,66" id="Fill-96"/>
                    <path d="M23.9988242,66 C22.8959436,66 22,66.8959436 22,68.0011758 C22,69.1040564 22.8959436,70 23.9988242,70 C25.1040564,70 26,69.1040564 26,68.0011758 C26,66.8959436 25.1040564,66 23.9988242,66" id="Fill-97"/>
                    <path d="M1.99882422,66 C0.895943563,66 0,66.8959436 0,68.0011758 C0,69.1040564 0.895943563,70 1.99882422,70 C3.10405644,70 4,69.1040564 4,68.0011758 C4,66.8959436 3.10405644,66 1.99882422,66" id="Fill-98"/>
                    <path d="M198.998824,44 C197.895944,44 197,44.8959436 197,46.0011758 C197,47.1040564 197.895944,48 198.998824,48 C200.104056,48 201,47.1040564 201,46.0011758 C201,44.8959436 200.104056,44 198.998824,44" id="Fill-101"/>
                    <path d="M176,44 C174.894118,44 174,44.8959436 174,46.0011758 C174,47.1040564 174.894118,48 176,48 C177.105882,48 178,47.1040564 178,46.0011758 C178,44.8959436 177.105882,44 176,44" id="Fill-102"/>
                    <path d="M155.001176,44 C153.895944,44 153,44.8959436 153,46.0011758 C153,47.1040564 153.895944,48 155.001176,48 C156.104056,48 157,47.1040564 157,46.0011758 C157,44.8959436 156.104056,44 155.001176,44" id="Fill-103"/>
                    <path d="M133.001176,44 C131.895944,44 131,44.8959436 131,46.0011758 C131,47.1040564 131.895944,48 133.001176,48 C134.104056,48 135,47.1040564 135,46.0011758 C135,44.8959436 134.104056,44 133.001176,44" id="Fill-104"/>
                    <path d="M110.998824,44 C109.895944,44 109,44.8959436 109,46.0011758 C109,47.1040564 109.895944,48 110.998824,48 C112.104056,48 113,47.1040564 113,46.0011758 C113,44.8959436 112.104056,44 110.998824,44" id="Fill-105"/>
                    <path d="M88.9988242,44 C87.893592,44 87,44.8959436 87,46.0011758 C87,47.1040564 87.893592,48 88.9988242,48 C90.1040564,48 91,47.1040564 91,46.0011758 C91,44.8959436 90.1040564,44 88.9988242,44" id="Fill-106"/>
                    <path d="M68.0011758,44 C66.8959436,44 66,44.8959436 66,46.0011758 C66,47.1040564 66.8959436,48 68.0011758,48 C69.106408,48 70,47.1040564 70,46.0011758 C70,44.8959436 69.106408,44 68.0011758,44" id="Fill-107"/>
                    <path d="M45.0011758,44 C43.8959436,44 43,44.8959436 43,46.0011758 C43,47.1040564 43.8959436,48 45.0011758,48 C46.1040564,48 47,47.1040564 47,46.0011758 C47,44.8959436 46.1040564,44 45.0011758,44" id="Fill-108"/>
                    <path d="M23.9988242,44 C22.8959436,44 22,44.8959436 22,46.0011758 C22,47.1040564 22.8959436,48 23.9988242,48 C25.1040564,48 26,47.1040564 26,46.0011758 C26,44.8959436 25.1040564,44 23.9988242,44" id="Fill-109"/>
                    <path d="M1.99882422,44 C0.895943563,44 0,44.8959436 0,46.0011758 C0,47.1040564 0.895943563,48 1.99882422,48 C3.10405644,48 4,47.1040564 4,46.0011758 C4,44.8959436 3.10405644,44 1.99882422,44" id="Fill-110"/>
                    <path d="M198.998824,23 C197.895944,23 197,23.8959436 197,24.9988242 C197,26.1040564 197.895944,27 198.998824,27 C200.104056,27 201,26.1040564 201,24.9988242 C201,23.8959436 200.104056,23 198.998824,23" id="Fill-113"/>
                    <path d="M176,23 C174.894118,23 174,23.8959436 174,24.9988242 C174,26.1040564 174.894118,27 176,27 C177.105882,27 178,26.1040564 178,24.9988242 C178,23.8959436 177.105882,23 176,23" id="Fill-114"/>
                    <path d="M155.001176,23 C153.895944,23 153,23.8959436 153,24.9988242 C153,26.1040564 153.895944,27 155.001176,27 C156.104056,27 157,26.1040564 157,24.9988242 C157,23.8959436 156.104056,23 155.001176,23" id="Fill-115"/>
                    <path d="M133.001176,23 C131.895944,23 131,23.8959436 131,24.9988242 C131,26.1040564 131.895944,27 133.001176,27 C134.104056,27 135,26.1040564 135,24.9988242 C135,23.8959436 134.104056,23 133.001176,23" id="Fill-116"/>
                    <path d="M110.998824,23 C109.895944,23 109,23.8959436 109,24.9988242 C109,26.1040564 109.895944,27 110.998824,27 C112.104056,27 113,26.1040564 113,24.9988242 C113,23.8959436 112.104056,23 110.998824,23" id="Fill-117"/>
                    <path d="M88.9988242,23 C87.893592,23 87,23.8959436 87,24.9988242 C87,26.1040564 87.893592,27 88.9988242,27 C90.1040564,27 91,26.1040564 91,24.9988242 C91,23.8959436 90.1040564,23 88.9988242,23" id="Fill-118"/>
                    <path d="M68.0011758,23 C66.8959436,23 66,23.8959436 66,24.9988242 C66,26.1040564 66.8959436,27 68.0011758,27 C69.106408,27 70,26.1040564 70,24.9988242 C70,23.8959436 69.106408,23 68.0011758,23" id="Fill-119"/>
                    <path d="M45.0011758,23 C43.8959436,23 43,23.8959436 43,24.9988242 C43,26.1040564 43.8959436,27 45.0011758,27 C46.1040564,27 47,26.1040564 47,24.9988242 C47,23.8959436 46.1040564,23 45.0011758,23" id="Fill-120"/>
                    <path d="M23.9988242,23 C22.8959436,23 22,23.8959436 22,24.9988242 C22,26.1040564 22.8959436,27 23.9988242,27 C25.1040564,27 26,26.1040564 26,24.9988242 C26,23.8959436 25.1040564,23 23.9988242,23" id="Fill-121"/>
                    <path d="M1.99882422,23 C0.895943563,23 0,23.8959436 0,24.9988242 C0,26.1040564 0.895943563,27 1.99882422,27 C3.10405644,27 4,26.1040564 4,24.9988242 C4,23.8959436 3.10405644,23 1.99882422,23" id="Fill-122"/>
                    <path d="M198.998824,0 C197.895944,0 197,0.893592005 197,1.99882422 C197,3.10405644 197.895944,4 198.998824,4 C200.104056,4 201,3.10405644 201,1.99882422 C201,0.893592005 200.104056,0 198.998824,0" id="Fill-125"/>
                    <path d="M176,0 C174.894118,0 174,0.893592005 174,1.99882422 C174,3.10405644 174.894118,4 176,4 C177.105882,4 178,3.10405644 178,1.99882422 C178,0.893592005 177.105882,0 176,0" id="Fill-126"/>
                    <path d="M155.001176,0 C153.895944,0 153,0.893592005 153,1.99882422 C153,3.10405644 153.895944,4 155.001176,4 C156.104056,4 157,3.10405644 157,1.99882422 C157,0.893592005 156.104056,0 155.001176,0" id="Fill-127"/>
                    <path d="M133.001176,0 C131.895944,0 131,0.893592005 131,1.99882422 C131,3.10405644 131.895944,4 133.001176,4 C134.104056,4 135,3.10405644 135,1.99882422 C135,0.893592005 134.104056,0 133.001176,0" id="Fill-128"/>
                    <path d="M110.998824,0 C109.895944,0 109,0.893592005 109,1.99882422 C109,3.10405644 109.895944,4 110.998824,4 C112.104056,4 113,3.10405644 113,1.99882422 C113,0.893592005 112.104056,0 110.998824,0" id="Fill-129"/>
                    <path d="M88.9988242,0 C87.893592,0 87,0.893592005 87,1.99882422 C87,3.10405644 87.893592,4 88.9988242,4 C90.1040564,4 91,3.10405644 91,1.99882422 C91,0.893592005 90.1040564,0 88.9988242,0" id="Fill-130"/>
                    <path d="M68.0011758,0 C66.8959436,0 66,0.893592005 66,1.99882422 C66,3.10405644 66.8959436,4 68.0011758,4 C69.106408,4 70,3.10405644 70,1.99882422 C70,0.893592005 69.106408,0 68.0011758,0" id="Fill-131"/>
                    <path d="M45.0011758,0 C43.8959436,0 43,0.893592005 43,1.99882422 C43,3.10405644 43.8959436,4 45.0011758,4 C46.1040564,4 47,3.10405644 47,1.99882422 C47,0.893592005 46.1040564,0 45.0011758,0" id="Fill-132"/>
                    <path d="M23.9988242,0 C22.8959436,0 22,0.893592005 22,1.99882422 C22,3.10405644 22.8959436,4 23.9988242,4 C25.1040564,4 26,3.10405644 26,1.99882422 C26,0.893592005 25.1040564,0 23.9988242,0" id="Fill-133"/>
                    <path d="M1.99882422,0 C0.895943563,0 0,0.893592005 0,1.99882422 C0,3.10405644 0.895943563,4 1.99882422,4 C3.10405644,4 4,3.10405644 4,1.99882422 C4,0.893592005 3.10405644,0 1.99882422,0" id="Fill-134"/>
                </g>
            </g>
        </g>
    </g>
</svg>